<svg viewBox="0 0 299 200" xmlns="http://www.w3.org/2000/svg"><g fill="#0d3f00"><path d="m39.54 14.59c-6.17 12.41-12.08 24.53-18.44 36.46-.8 1.49-4 1.71-6.06 2.51-.73-2.12-2.53-4.55-2-6.31 3.2-10.91 6.49-21.84 10.61-32.42 2.48-6.41 6.43-6.37 15.89-.24z"/><path d="m245.54 165.71c5.47-12.07 10.41-22.93 15.53-34.22 3.12.93 7.66 1.37 10.9 3.66 1.71 1.21 2.61 6.62 1.37 8.44-5 7.3-11.16 13.74-16.38 20.87-4.07 5.54-7.12 5.87-11.42 1.25z"/><path d="m277.62 150 17.38 3.74c-2.92 6.1-5.55 12.47-8.83 18.25a202.22 202.22 0 0 1 -18.49 27.75c-3.5-7.13-9.12-7.9-2.87-20.11 6.03-11.8 8.09-18.17 12.81-29.63z"/><path d="m0 31.23c1-8.77 1.61-15.1 2.39-21.41.4-3.53 12.23-10.4 14.73-8.49a4 4 0 0 1 1.23 3.36c-3 9-8.35 16.61-11.83 25.4-.77 2-.93 4.54-2.61 6.1z"/></g><path d="m75.14 74.76c-.48 2.31-1.83 4.45-2.78 6.67-2.25-1.5-5.37-2.5-6.59-4.6-3.37-5.83-10.32-17.92-11.08-17.83.75 5.27 1.78 10.51 2.11 15.8.13 2.17-1.25 4.43-1.95 6.64-2-1.34-4.65-2.26-5.7-4.12-2.62-4.58-4.49-9.6-6.74-14.62-3.4 3-3.86 6.34-4.42 11.09-.15 1.28-.56 5.36-3.17 5.28 0-13.29-.61-28.21-.31-40.66.05-1.92 2.18-3.8 3.35-5.69 1.72 1.56 4.2 2.8 5 4.74 2.05 4.86 3.34 10 6.33 14.89.73-3.92 1.16-7.94 2.33-11.72.57-1.87 2.52-3.32 3.84-4.95 1.4 1.56 3.43 2.9 4.08 4.72 2.82 7.9 5.22 15.94 7.78 23.93 1.08.08 2.46 3.12 3.26.24 2.87-13.05 5.61-26.13 8.75-39.12.54-2.26 2.78-4.1 4.24-6.14 1.11 2.12 2.89 4.14 3.2 6.37 1.52 10.92 2.64 21.89 3.9 32.84l3.1.07c1.95-9.06 3.66-18.19 6-27.14.55-2.11 3.3-3.64 5-5.44.71 2.08 2 4.15 2 6.24.09 11.93-.22 23.87-.16 35.81 0 2.29 1.07 4.57 1.65 6.85l2.46.18c2.59-12.84 5.07-25.7 7.84-38.49.54-2.51 2.19-4.78 3.34-7.16 1.13 2.4 3.05 4.72 3.26 7.19 1.56 18.43 2.72 36.88 4.17 55.31.23 2.91 1.3 5.76 2.45 10.58 7.88-4.16 15.09-7.49 21.78-11.67 4.64-2.91 7.81-3.22 10.17 1.77-7 11.27-14.11 22.19-20.69 33.43-10 17-7.78 35.16-4.08 53.33.59 2.89 1.84 5.77 1.8 8.65a15.25 15.25 0 0 1 -3.15 8.24c-11.82-19.39-16.1-39.57-11.68-60.38-10.53 4.92-20.87 11.56-32.18 14.6-15.31 4.11-25.09 10-47.1 7.7-23.43-4.09-21.21-15.54-12.7-29.42 10.4-16.94 21.37-25 34.05-35.69a68.58 68.58 0 0 1 6.79-4.54c14.31-9.26 14.31-9.26 10.52-25.75-.95-4.13-2.07-8.22-3.12-12.33-.77-3.07-5.24 16.18-6.95 24.3zm53.2 36.24-37.22 5.8c5-11.27 16.09-10.68 20.07-11.37s8-2.23 12.07-3.38c-2.48-4.67-5-9.35-7.49-14-.2-.38-1-.45-.32-.17l-9.26 7.06c-2.3-6.53-1.56-14.42-10.12-11.2-17.82 6.71-32.14 17-35.87 37.46-1.55 8.51 1.64 13.72 9.58 17 7.09 3 13.7 1.48 20.29-.42 16.61-4.78 29.73-10.24 38.27-26.78z" fill="#027f00"/><path d="m178.15 110.06-6.2 2.88c2.41 3.43 17.49 8.21 17.49 8.21s-1.85 4.48-4.61 9.85a110.73 110.73 0 0 0 -16.59-12.76c-.05 3.5-.08 6.07-.15 11.15l-4.42-3.76-2.67-27.84c5.32 0 10.53-.33 15.74 0 5.69.33 7.12 3 5.58 10.09m2.42.49c-1.43-2.43-2.7-4.58-4.58-7.75 4.84-2.29 20.84-5.45 20.84-5.45s1.68 5.26 1.87 6.33c-4.15 1.37-9.41 3.23-12.93 5.29a13.05 13.05 0 0 0 1.06 1.72l11.67-4.51a18.86 18.86 0 0 1 -.49 5.43c-1.4 1.24-9.37 3.12-9.88 3.44.16.86 2.07 5 2.22 5.83 3.25-1 6.65-1.41 9.69-3s6.39-2.32 9.19-4.43c-1.3-3-3.06-8.32-5.55-14 6.51 2.07 17.83-1.53 17.83-1.53s4.43 1.11 6.91 3.09l-14.31 5.91.38 2.85 15.55-2.37c.31 1.12 1.67 1.44 2 2.56-2.44 1.53-15.31 4.76-15.31 4.76l2.52 3.4 17.94-1.36-.09-.18c.32 2.85-2.22 5.74-2.22 5.74l-20.89 4.28a61.36 61.36 0 0 1 -3.32-6.93c-.23-.66-8 4.28-9.1 4.73a29.64 29.64 0 0 0 -6 3.37c-4.58 3.22-8 3.42-10-5.08a65.25 65.25 0 0 0 -2.9-7.18zm57 7.32c.27.53.52 1.06.81 1.56 1.57 2.72 3.16 5.43 4.74 8.14.52-3.41 1-6.81 1.58-10.21a7.89 7.89 0 0 1 .64-1.59l16.41 6.58c-1.48 7.41.19 10.31 5.26 8.49 7.36-2.62 14.64-5.69 21.92-8.79 1.14-.49 3-2.28 2.92-3.19a9.44 9.44 0 0 0 -2.1-5.42c-2.83-2.78-5.94-4.95-9.63-7.91l9.2-2.45c-2.34-4.75-3.2-3.93-3.2-3.93s-10.61-1.74-13.13-.39c-2 1.06-2.27 5.77-2.12 6.75.32 2.19 2.28 4 3.62 4.93a49.09 49.09 0 0 0 8.16 4.91c-.08.62-11.36 4.66-16.8 6-3.44-8.4-11.09-24.9-11.09-24.9s-5.13-2.54-9-2.27c4.55 6.82 10.32 19.21 9.74 20.22l-21.67-18.52c1.55 9.09 2.66 15.63 3.78 22.17.01 0-.07-.21-.06-.2zm-72.07-11.4-.46 4.34s6.31-.24 6.44-1.73-6-2.63-6-2.63z" fill="#027f00"/></svg>