<?xml version="1.0" encoding="utf-8"?>
<!-- Generator: Adobe Illustrator 24.0.3, SVG Export Plug-In . SVG Version: 6.00 Build 0)  -->
<svg version="1.1" id="Layer_1" xmlns="http://www.w3.org/2000/svg" xmlns:xlink="http://www.w3.org/1999/xlink" x="0px" y="0px"
	 viewBox="0 0 219.9 150" style="enable-background:new 0 0 219.9 150;" xml:space="preserve">
<style type="text/css">
	.st0{fill:#0D3F00;}
	.st1{fill:#027F00;}
</style>
<title>Artboard 7</title>
<path class="st0" d="M34.8,16.2c-4.2,8.5-8.3,16.9-12.7,25.1c-0.6,1-2.8,1.2-4.2,1.7c-0.5-1.5-1.7-3.1-1.4-4.3
	c2.2-7.5,4.5-15,7.3-22.3C25.6,12,28.3,12,34.8,16.2z"/>
<path class="st0" d="M176.5,120.2c3.8-8.3,7.2-15.8,10.7-23.5c2.1,0.6,5.3,0.9,7.5,2.5c1.2,0.8,1.8,4.6,0.9,5.8
	c-3.4,5-7.7,9.5-11.3,14.4C181.6,123.2,179.5,123.4,176.5,120.2z"/>
<path class="st0" d="M198.6,109.4l12,2.6c-2,4.2-3.8,8.6-6.1,12.6c-3.7,6.7-8,13.1-12.7,19.1c-2.4-4.9-6.3-5.4-2-13.8
	C193.9,121.7,195.4,117.3,198.6,109.4z"/>
<path class="st0" d="M7.6,27.7c0.7-6,1.1-10.4,1.6-14.7c0.3-2.4,8.4-7.2,10.1-5.8c0.6,0.6,0.9,1.5,0.8,2.3
	c-2.1,6.2-5.7,11.4-8.1,17.5c-0.5,1.4-0.6,3.1-1.8,4.2L7.6,27.7z"/>
<path class="st1" d="M59.3,57.6c-0.3,1.6-1.3,3.1-1.9,4.6c-1.5-1-3.7-1.7-4.5-3.2c-2.3-4-7.1-12.3-7.6-12.3
	c0.5,3.6,1.2,7.2,1.5,10.9c0.1,1.5-0.9,3-1.3,4.6c-1.4-0.9-3.2-1.6-3.9-2.8c-1.8-3.2-3.1-6.6-4.6-10.1c-2.3,2.1-2.7,4.4-3,7.6
	c-0.1,0.9-0.4,3.7-2.2,3.6c0-9.1-0.4-19.4-0.2-28c0-1.3,1.5-2.6,2.3-3.9c1.2,1.1,2.9,1.9,3.4,3.3c1.4,3.3,2.3,6.9,4.4,10.2
	c0.5-2.7,0.8-5.5,1.6-8.1c0.4-1.3,1.7-2.3,2.6-3.4c1,1.1,2.4,2,2.8,3.2c1.9,5.4,3.6,11,5.4,16.5c0.7,0.1,1.7,2.1,2.2,0.2
	c2-9,3.9-18,6-26.9c0.4-1.6,1.9-2.8,2.9-4.2c0.8,1.5,2,2.8,2.2,4.4c1,7.5,1.8,15.1,2.7,22.6l2.1,0c1.3-6.2,2.5-12.5,4.1-18.7
	c0.4-1.5,2.3-2.5,3.4-3.7c0.5,1.4,1.4,2.9,1.4,4.3c0.1,8.2-0.2,16.4-0.1,24.6c0,1.6,0.7,3.1,1.1,4.7l1.7,0.1
	c1.8-8.8,3.5-17.7,5.4-26.5c0.4-1.7,1.5-3.3,2.3-4.9c0.8,1.7,2.1,3.2,2.2,4.9c1.1,12.7,1.9,25.4,2.9,38.1c0.2,2,0.9,4,1.7,7.3
	c5.4-2.9,10.4-5.2,15-8c3.2-2,5.4-2.2,7,1.2c-4.8,7.8-9.7,15.3-14.2,23c-6.9,11.7-5.4,24.2-2.8,36.7c0.4,2,1.3,4,1.2,6
	c-0.1,2.1-0.9,4-2.2,5.7c-8.1-13.3-11.1-27.2-8-41.5c-7.2,3.4-14.4,8-22.1,10c-10.5,2.8-17.3,6.9-32.4,5.3
	c-16.1-2.8-14.6-10.7-8.7-20.2C38,83.1,45.6,77.6,54.3,70.2c1.5-1.1,3.1-2.2,4.7-3.1c9.8-6.4,9.8-6.4,7.2-17.7
	c-0.7-2.8-1.4-5.7-2.1-8.5C63.5,38.8,60.5,52,59.3,57.6z M95.9,82.6l-25.6,4c3.4-7.8,11.1-7.3,13.8-7.8c2.7-0.5,5.5-1.5,8.3-2.3
	c-1.7-3.2-3.4-6.4-5.2-9.6c-0.1-0.3-0.7-0.3-0.2-0.1l-6.4,4.9c-1.6-4.5-1.1-9.9-7-7.7C61.4,68.4,51.6,75.5,49,89.6
	c-1.1,5.9,1.1,9.4,6.6,11.7c4.9,2.1,9.4,1,14-0.3C81,97.7,90,93.9,95.9,82.6z"/>
<path class="st1" d="M130.2,81.9l-4.3,2c1.7,2.4,12,5.6,12,5.6s-1.3,3.1-3.2,6.8c-3.5-3.3-7.3-6.2-11.4-8.8c0,2.4-0.1,4.2-0.1,7.7
	l-3-2.6l-1.8-19.2c3.7,0,7.2-0.2,10.8,0c3.9,0.2,4.9,2.1,3.8,6.9 M134.7,80.8c-1-1.7-1.9-3.2-3.2-5.3c3.3-1.6,14.3-3.8,14.3-3.8
	s1.2,3.6,1.3,4.4c-2.9,0.9-6.5,2.2-8.9,3.6c0.2,0.4,0.5,0.8,0.7,1.2l8-3.1c0.1,1.3,0,2.5-0.3,3.7c-1,0.9-6.4,2.1-6.8,2.4
	c0.1,0.6,1.4,3.4,1.5,4c2.2-0.7,4.6-1,6.7-2.1s4.4-1.6,6.3-3c-0.9-2.1-2.1-5.7-3.8-9.6c4.5,1.4,12.3-1.1,12.3-1.1s3,0.8,4.8,2.1
	l-9.8,4.1l0.3,2l10.7-1.6c0.2,0.8,1.1,1,1.4,1.8c-1.7,1.1-10.5,3.3-10.5,3.3l1.7,2.3l12.3-0.9l-0.1-0.1c0.2,2-1.5,3.9-1.5,3.9
	l-14.4,2.9c-0.9-1.5-1.6-3.1-2.3-4.8c-0.2-0.5-5.5,2.9-6.3,3.3c-1.5,0.6-2.8,1.4-4.1,2.3c-3.2,2.2-5.5,2.4-6.9-3.5
	c-0.6-1.7-1.2-3.3-2-4.9L134.7,80.8z M173.9,85.8c0.2,0.4,0.4,0.7,0.6,1.1c1.1,1.9,2.2,3.7,3.3,5.6c0.4-2.3,0.7-4.7,1.1-7
	c0.1-0.4,0.3-0.7,0.4-1.1l11.3,4.5c-1,5.1,0.1,7.1,3.6,5.8c5.1-1.8,10.1-3.9,15.1-6c0.8-0.3,2.1-1.6,2-2.2c-0.1-1.4-0.6-2.7-1.4-3.7
	c-1.9-1.9-4.1-3.4-6.6-5.4l6.3-1.7c-1.6-3.3-2.2-2.7-2.2-2.7s-7.3-1.2-9-0.3c-1.4,0.7-1.6,4-1.5,4.6c0.2,1.5,1.6,2.8,2.5,3.4
	c1.8,1.3,3.6,2.4,5.6,3.4c-0.1,0.4-7.8,3.2-11.6,4.1c-2.4-5.8-7.6-17.1-7.6-17.1s-3.5-1.7-6.2-1.6c3.1,4.7,7.1,13.2,6.7,13.9
	l-14.9-12.7c1.1,6.3,1.8,10.8,2.6,15.3C174,85.9,173.9,85.8,173.9,85.8L173.9,85.8z M124.3,77.9l-0.3,3c0,0,4.3-0.2,4.4-1.2
	C128.5,78.7,124.3,77.9,124.3,77.9L124.3,77.9z"/>
</svg>
